<svg xmlns="http://www.w3.org/2000/svg" width="34" height="34" viewBox="0 0 34 34">
  <g id="Group_64" data-name="Group 64" transform="translate(-133.807 -422.807)">
    <path id="Path_561" data-name="Path 561"
      d="M17,0a17,17,0,0,1,0,34c-3.793,0-10.357-3.518-10.357-3.518S0,22.6,0,17A17,17,0,0,1,17,0Z"
      transform="translate(133.807 422.807)" fill="#f5f5f5" />
    <g id="shopping-cart" transform="translate(143.729 433.405)">
      <circle id="Ellipse_2" data-name="Ellipse 2" cx="0.457" cy="0.457" r="0.457" transform="translate(4.575 11.602)"
        fill="none" stroke="#ff5b55" stroke-linecap="round" stroke-linejoin="round" stroke-width="1" />
      <circle id="Ellipse_3" data-name="Ellipse 3" cx="0.457" cy="0.457" r="0.457" transform="translate(10.979 11.602)"
        fill="none" stroke="#ff5b55" stroke-linecap="round" stroke-linejoin="round" stroke-width="1" />
      <path id="Path_198" data-name="Path 198"
        d="M1,1H3.384l1.6,7.981a1.192,1.192,0,0,0,1.192.96h5.794a1.192,1.192,0,0,0,1.192-.96l.954-5H3.98"
        transform="translate(-1 -1)" fill="none" stroke="#ff5b55" stroke-linecap="round" stroke-linejoin="round"
        stroke-width="1" />
    </g>
  </g>
</svg>